<svg xmlns="http://www.w3.org/2000/svg" width="64" height="64" id="graph"><path d="M54.5 11a.5.5 0 0 0-.5.5V21h-5.5a.5.5 0 0 0-.5.5V53h-2V31.5a.5.5 0 0 0-.5-.5h-6a.5.5 0 0 0-.5.5V36h-5.5a.5.5 0 0 0-.5.5V53h-2V23.5a.5.5 0 0 0-.5-.5h-6a.5.5 0 0 0-.5.5V41h-5.5a.5.5 0 0 0-.5.5V53h-2V34.5a.5.5 0 0 0-.5-.5h-6a.5.5 0 0 0-.5.5V38H3.5a.5.5 0 0 0-.5.5V53H1.492a.5.5 0 1 0 0 1h61a.5.5 0 1 0 0-1H61V11.5a.5.5 0 0 0-.5-.5h-6zm.5 1h5v41h-5V12zm-6 10h.367l-.367.367V22zm1.781 0h1.414L49 25.195v-1.414L50.781 22zm2.828 0H54v1.023l-5 5.002v-1.414L53.61 22zM25 24h5v29h-5V24zm29 .438v1.414l-5 5.002v-1.415l5-5.002zm0 2.828v1.416l-3.758 3.757L49 33.682v-1.414l.535-.536L54 27.266zm0 2.83v1.414l-2.344 2.344L49 36.51v-1.414l.535-.535 1.414-1.415L54 30.096zM40 32h5v21h-5V32zm14 .924v1.414l-.93.93-4.07 4.07v-1.414l3.363-3.363L54 32.924zM10 35h5v18h-5V35zm44 .752v1.414l-5 5v-1.414l4.777-4.777.223-.223zM34 37h.367l-.367.367V37zm1.781 0h1.414L34 40.195v-1.414L35.781 37zm2.828 0H39v1.023l-5 5.002v-1.414L38.61 37zM54 38.58v1.414l-5 5V43.58l5-5zM4 39h.367L4 39.367V39zm1.781 0h1.414L4 42.195v-1.414L5.781 39zm2.828 0H9v1.023l-5 5.002v-1.414L8.61 39zM39 39.438v1.414l-5 5.002v-1.415l5-5.002zm15 1.97v1.414l-5 5v-1.414l5-5zm-45 .03v1.414l-5 5.002v-1.415l5-5.002zM19 42h.367l-.367.367V42zm1.781 0h1.414L19 45.195v-1.414L20.781 42zm2.828 0H24v1.023l-5 5.002v-1.414L23.61 42zM39 42.266v1.416l-3.758 3.757L34 48.682v-1.414l.535-.536L39 42.266zm15 1.97v1.414l-5 5.002v-1.414l5-5.002zm-45 .03v1.416l-3.758 3.757L4 50.682v-1.414l.535-.536L9 44.266zm15 .172v1.414l-5 5.002v-1.415l5-5.002zm15 .658v1.414l-2.344 2.344L34 51.51v-1.414l.535-.535 1.414-1.415L39 45.096zm15 1.968v1.415L49.48 53H49v-.934l5-5.002zm-45 .032v1.414l-2.344 2.344L4.51 53H4v-.904l.535-.535 1.414-1.415L9 47.096zm15 .17v1.416l-3.758 3.757-.56.561H19v-.732l.535-.536L24 47.266zm15 .658v1.414l-.93.93L35.338 53H34v-.076l3.363-3.363L39 47.924zm15 1.97v1.415L52.309 53h-1.414L54 49.895zm-45 .03v1.414l-.93.93-.732.732H5.924l1.44-1.44L9 49.925zm15 .172v1.414L22.51 53h-1.414L24 50.096zm15 .656v1.414l-.834.834h-1.414l2.025-2.025.223-.223zm15 1.97V53h-.277l.277-.277zm-45 .03V53h-.248l.025-.025.223-.223zm15 .172V53h-.076l.076-.076z" color="#000" font-family="sans-serif" font-weight="400" overflow="visible" style="line-height:normal;text-indent:0;text-align:start;text-decoration-line:none;text-decoration-style:solid;text-decoration-color:#000;text-transform:none;block-progression:tb;white-space:normal;isolation:auto;mix-blend-mode:normal;solid-color:#000;solid-opacity:1"></path></svg>